<?xml version="1.0" encoding="UTF-8" standalone="no"?>
<svg
   height="48"
   viewBox="0 -960 960 960"
   width="48"
   version="1.1"
   id="svg185"
   sodipodi:docname="dark.svg"
   inkscape:version="1.2.2 (732a01da63, 2022-12-09)"
   xmlns:inkscape="http://www.inkscape.org/namespaces/inkscape"
   xmlns:sodipodi="http://sodipodi.sourceforge.net/DTD/sodipodi-0.dtd"
   xmlns="http://www.w3.org/2000/svg"
   xmlns:svg="http://www.w3.org/2000/svg">
  <defs
     id="defs189" />
  <sodipodi:namedview
     id="namedview187"
     pagecolor="#ffffff"
     bordercolor="#000000"
     borderopacity="0.25"
     inkscape:showpageshadow="2"
     inkscape:pageopacity="0.0"
     inkscape:pagecheckerboard="0"
     inkscape:deskcolor="#d1d1d1"
     showgrid="false"
     inkscape:zoom="16.75"
     inkscape:cx="16.089552"
     inkscape:cy="24.029851"
     inkscape:window-width="1920"
     inkscape:window-height="991"
     inkscape:window-x="-9"
     inkscape:window-y="-9"
     inkscape:window-maximized="1"
     inkscape:current-layer="svg185" />
  <path
     d="M480-120q-150 0-255-105T120-480q0-150 105-255t255-105q8 0 17 .5t23 1.5q-36 32-56 79t-20 99q0 90 63 153t153 63q52 0 99-18.5t79-51.5q1 12 1.5 19.5t.5 14.5q0 150-105 255T480-120Zm0-60q109 0 190-67.5T771-406q-25 11-53.667 16.5Q688.667-384 660-384q-114.689 0-195.345-80.655Q384-545.311 384-660q0-24 5-51.5t18-62.5q-98 27-162.5 109.5T180-480q0 125 87.5 212.5T480-180Zm-4-297Z"
     id="path183"
     style="fill:#ffffff" />
</svg>
